<?xml version="1.0" encoding="UTF-8"?>
<svg xmlns="http://www.w3.org/2000/svg" xmlns:xlink="http://www.w3.org/1999/xlink" width="1100" height="1300" viewBox="0 0 1100 1300">
<defs>
<g>
<g id="glyph-0-0">
<path d="M 2.453125 -18.21875 L 4.921875 -18.21875 L 4.921875 -2.078125 L 13.796875 -2.078125 L 13.796875 0 L 2.453125 0 Z M 2.453125 -18.21875 "/>
</g>
<g id="glyph-0-1">
<path d="M 14.046875 -7.390625 L 14.046875 -6.296875 L 3.71875 -6.296875 C 3.820312 -4.753906 4.289062 -3.578125 5.125 -2.765625 C 5.957031 -1.953125 7.117188 -1.546875 8.609375 -1.546875 C 9.472656 -1.546875 10.304688 -1.648438 11.109375 -1.859375 C 11.921875 -2.078125 12.726562 -2.394531 13.53125 -2.8125 L 13.53125 -0.703125 C 12.71875 -0.359375 11.890625 -0.0976562 11.046875 0.078125 C 10.203125 0.265625 9.34375 0.359375 8.46875 0.359375 C 6.289062 0.359375 4.5625 -0.273438 3.28125 -1.546875 C 2.007812 -2.816406 1.375 -4.535156 1.375 -6.703125 C 1.375 -8.941406 1.976562 -10.71875 3.1875 -12.03125 C 4.394531 -13.34375 6.023438 -14 8.078125 -14 C 9.921875 -14 11.375 -13.40625 12.4375 -12.21875 C 13.507812 -11.039062 14.046875 -9.429688 14.046875 -7.390625 Z M 11.796875 -8.0625 C 11.785156 -9.289062 11.441406 -10.269531 10.765625 -11 C 10.097656 -11.726562 9.210938 -12.09375 8.109375 -12.09375 C 6.847656 -12.09375 5.84375 -11.738281 5.09375 -11.03125 C 4.34375 -10.320312 3.910156 -9.328125 3.796875 -8.046875 Z M 11.796875 -8.0625 "/>
</g>
<g id="glyph-0-2">
<path d="M 11.359375 -7 C 11.359375 -8.625 11.019531 -9.882812 10.34375 -10.78125 C 9.675781 -11.675781 8.734375 -12.125 7.515625 -12.125 C 6.316406 -12.125 5.378906 -11.675781 4.703125 -10.78125 C 4.035156 -9.882812 3.703125 -8.625 3.703125 -7 C 3.703125 -5.375 4.035156 -4.113281 4.703125 -3.21875 C 5.378906 -2.320312 6.316406 -1.875 7.515625 -1.875 C 8.734375 -1.875 9.675781 -2.320312 10.34375 -3.21875 C 11.019531 -4.113281 11.359375 -5.375 11.359375 -7 Z M 13.59375 -1.703125 C 13.59375 0.628906 13.078125 2.363281 12.046875 3.5 C 11.015625 4.632812 9.429688 5.203125 7.296875 5.203125 C 6.503906 5.203125 5.757812 5.140625 5.0625 5.015625 C 4.363281 4.898438 3.6875 4.722656 3.03125 4.484375 L 3.03125 2.296875 C 3.6875 2.648438 4.332031 2.910156 4.96875 3.078125 C 5.613281 3.253906 6.273438 3.34375 6.953125 3.34375 C 8.421875 3.34375 9.519531 2.957031 10.25 2.1875 C 10.988281 1.414062 11.359375 0.253906 11.359375 -1.296875 L 11.359375 -2.40625 C 10.890625 -1.601562 10.289062 -1 9.5625 -0.59375 C 8.84375 -0.195312 7.976562 0 6.96875 0 C 5.289062 0 3.9375 -0.632812 2.90625 -1.90625 C 1.882812 -3.1875 1.375 -4.882812 1.375 -7 C 1.375 -9.113281 1.882812 -10.804688 2.90625 -12.078125 C 3.9375 -13.359375 5.289062 -14 6.96875 -14 C 7.976562 -14 8.84375 -13.800781 9.5625 -13.40625 C 10.289062 -13.007812 10.890625 -12.40625 11.359375 -11.59375 L 11.359375 -13.671875 L 13.59375 -13.671875 Z M 13.59375 -1.703125 "/>
</g>
<g id="glyph-0-3">
<path d="M 13.71875 -8.25 L 13.71875 0 L 11.46875 0 L 11.46875 -8.171875 C 11.46875 -9.472656 11.21875 -10.441406 10.71875 -11.078125 C 10.21875 -11.722656 9.460938 -12.046875 8.453125 -12.046875 C 7.234375 -12.046875 6.273438 -11.660156 5.578125 -10.890625 C 4.878906 -10.117188 4.53125 -9.066406 4.53125 -7.734375 L 4.53125 0 L 2.265625 0 L 2.265625 -13.671875 L 4.53125 -13.671875 L 4.53125 -11.546875 C 5.0625 -12.367188 5.691406 -12.984375 6.421875 -13.390625 C 7.148438 -13.796875 7.992188 -14 8.953125 -14 C 10.515625 -14 11.695312 -13.507812 12.5 -12.53125 C 13.3125 -11.5625 13.71875 -10.132812 13.71875 -8.25 Z M 13.71875 -8.25 "/>
</g>
<g id="glyph-0-4">
<path d="M 11.359375 -11.59375 L 11.359375 -19 L 13.59375 -19 L 13.59375 0 L 11.359375 0 L 11.359375 -2.046875 C 10.878906 -1.234375 10.28125 -0.628906 9.5625 -0.234375 C 8.84375 0.160156 7.976562 0.359375 6.96875 0.359375 C 5.320312 0.359375 3.976562 -0.296875 2.9375 -1.609375 C 1.894531 -2.929688 1.375 -4.671875 1.375 -6.828125 C 1.375 -8.972656 1.894531 -10.703125 2.9375 -12.015625 C 3.976562 -13.335938 5.320312 -14 6.96875 -14 C 7.976562 -14 8.84375 -13.800781 9.5625 -13.40625 C 10.28125 -13.007812 10.878906 -12.40625 11.359375 -11.59375 Z M 3.703125 -6.828125 C 3.703125 -5.171875 4.039062 -3.875 4.71875 -2.9375 C 5.394531 -2 6.328125 -1.53125 7.515625 -1.53125 C 8.703125 -1.53125 9.640625 -2 10.328125 -2.9375 C 11.015625 -3.875 11.359375 -5.171875 11.359375 -6.828125 C 11.359375 -8.472656 11.015625 -9.765625 10.328125 -10.703125 C 9.640625 -11.648438 8.703125 -12.125 7.515625 -12.125 C 6.328125 -12.125 5.394531 -11.648438 4.71875 -10.703125 C 4.039062 -9.765625 3.703125 -8.472656 3.703125 -6.828125 Z M 3.703125 -6.828125 "/>
</g>
<g id="glyph-1-0">
<path d="M 6.4375 1.015625 C 5.925781 2.316406 5.429688 3.164062 4.953125 3.5625 C 4.472656 3.957031 3.828125 4.15625 3.015625 4.15625 L 1.578125 4.15625 L 1.578125 2.65625 L 2.640625 2.65625 C 3.128906 2.65625 3.507812 2.535156 3.78125 2.296875 C 4.0625 2.066406 4.367188 1.515625 4.703125 0.640625 L 5.015625 -0.171875 L 0.59375 -10.9375 L 2.5 -10.9375 L 5.921875 -2.390625 L 9.34375 -10.9375 L 11.234375 -10.9375 Z M 6.4375 1.015625 "/>
</g>
<g id="glyph-1-1">
<path d="M 9.078125 -5.59375 C 9.078125 -6.894531 8.804688 -7.90625 8.265625 -8.625 C 7.734375 -9.34375 6.984375 -9.703125 6.015625 -9.703125 C 5.054688 -9.703125 4.304688 -9.34375 3.765625 -8.625 C 3.222656 -7.90625 2.953125 -6.894531 2.953125 -5.59375 C 2.953125 -4.300781 3.222656 -3.296875 3.765625 -2.578125 C 4.304688 -1.859375 5.054688 -1.5 6.015625 -1.5 C 6.984375 -1.5 7.734375 -1.859375 8.265625 -2.578125 C 8.804688 -3.296875 9.078125 -4.300781 9.078125 -5.59375 Z M 10.875 -1.359375 C 10.875 0.503906 10.460938 1.890625 9.640625 2.796875 C 8.816406 3.703125 7.550781 4.15625 5.84375 4.15625 C 5.207031 4.15625 4.609375 4.109375 4.046875 4.015625 C 3.492188 3.921875 2.953125 3.773438 2.421875 3.578125 L 2.421875 1.84375 C 2.953125 2.125 3.472656 2.332031 3.984375 2.46875 C 4.492188 2.601562 5.019531 2.671875 5.5625 2.671875 C 6.738281 2.671875 7.617188 2.363281 8.203125 1.75 C 8.785156 1.132812 9.078125 0.207031 9.078125 -1.03125 L 9.078125 -1.921875 C 8.710938 -1.273438 8.238281 -0.789062 7.65625 -0.46875 C 7.070312 -0.15625 6.378906 0 5.578125 0 C 4.234375 0 3.148438 -0.507812 2.328125 -1.53125 C 1.515625 -2.550781 1.109375 -3.90625 1.109375 -5.59375 C 1.109375 -7.289062 1.515625 -8.648438 2.328125 -9.671875 C 3.148438 -10.691406 4.234375 -11.203125 5.578125 -11.203125 C 6.378906 -11.203125 7.070312 -11.039062 7.65625 -10.71875 C 8.238281 -10.40625 8.710938 -9.925781 9.078125 -9.28125 L 9.078125 -10.9375 L 10.875 -10.9375 Z M 10.875 -1.359375 "/>
</g>
<g id="glyph-1-2">
<path d="M 9.75 -10.515625 L 9.75 -8.84375 C 9.25 -9.125 8.742188 -9.332031 8.234375 -9.46875 C 7.722656 -9.601562 7.207031 -9.671875 6.6875 -9.671875 C 5.519531 -9.671875 4.613281 -9.300781 3.96875 -8.5625 C 3.320312 -7.832031 3 -6.796875 3 -5.453125 C 3 -4.117188 3.320312 -3.082031 3.96875 -2.34375 C 4.613281 -1.601562 5.519531 -1.234375 6.6875 -1.234375 C 7.207031 -1.234375 7.722656 -1.300781 8.234375 -1.4375 C 8.742188 -1.582031 9.25 -1.796875 9.75 -2.078125 L 9.75 -0.421875 C 9.25 -0.179688 8.726562 -0.00390625 8.1875 0.109375 C 7.65625 0.222656 7.085938 0.28125 6.484375 0.28125 C 4.835938 0.28125 3.53125 -0.234375 2.5625 -1.265625 C 1.59375 -2.304688 1.109375 -3.703125 1.109375 -5.453125 C 1.109375 -7.242188 1.597656 -8.648438 2.578125 -9.671875 C 3.554688 -10.691406 4.898438 -11.203125 6.609375 -11.203125 C 7.160156 -11.203125 7.695312 -11.144531 8.21875 -11.03125 C 8.75 -10.914062 9.257812 -10.742188 9.75 -10.515625 Z M 9.75 -10.515625 "/>
</g>
<g id="glyph-1-3">
<path d="M 11.90625 -2.078125 L 11.90625 -6 L 8.6875 -6 L 8.6875 -7.625 L 13.859375 -7.625 L 13.859375 -1.359375 C 13.097656 -0.816406 12.257812 -0.40625 11.34375 -0.125 C 10.425781 0.144531 9.445312 0.28125 8.40625 0.28125 C 6.125 0.28125 4.335938 -0.382812 3.046875 -1.71875 C 1.765625 -3.050781 1.125 -4.90625 1.125 -7.28125 C 1.125 -9.65625 1.765625 -11.507812 3.046875 -12.84375 C 4.335938 -14.175781 6.125 -14.84375 8.40625 -14.84375 C 9.351562 -14.84375 10.253906 -14.722656 11.109375 -14.484375 C 11.960938 -14.253906 12.753906 -13.910156 13.484375 -13.453125 L 13.484375 -11.359375 C 12.753906 -11.972656 11.976562 -12.4375 11.15625 -12.75 C 10.332031 -13.0625 9.46875 -13.21875 8.5625 -13.21875 C 6.78125 -13.21875 5.441406 -12.71875 4.546875 -11.71875 C 3.648438 -10.726562 3.203125 -9.25 3.203125 -7.28125 C 3.203125 -5.3125 3.648438 -3.828125 4.546875 -2.828125 C 5.441406 -1.835938 6.78125 -1.34375 8.5625 -1.34375 C 9.257812 -1.34375 9.878906 -1.398438 10.421875 -1.515625 C 10.972656 -1.640625 11.46875 -1.828125 11.90625 -2.078125 Z M 11.90625 -2.078125 "/>
</g>
<g id="glyph-1-4">
<path d="M 12.875 -13.453125 L 12.875 -11.375 C 12.21875 -12 11.507812 -12.460938 10.75 -12.765625 C 10 -13.066406 9.203125 -13.21875 8.359375 -13.21875 C 6.691406 -13.21875 5.414062 -12.707031 4.53125 -11.6875 C 3.644531 -10.675781 3.203125 -9.207031 3.203125 -7.28125 C 3.203125 -5.351562 3.644531 -3.878906 4.53125 -2.859375 C 5.414062 -1.847656 6.691406 -1.34375 8.359375 -1.34375 C 9.203125 -1.34375 10 -1.492188 10.75 -1.796875 C 11.507812 -2.097656 12.21875 -2.5625 12.875 -3.1875 L 12.875 -1.125 C 12.1875 -0.65625 11.457031 -0.300781 10.6875 -0.0625 C 9.914062 0.164062 9.101562 0.28125 8.25 0.28125 C 6.039062 0.28125 4.300781 -0.390625 3.03125 -1.734375 C 1.757812 -3.085938 1.125 -4.9375 1.125 -7.28125 C 1.125 -9.625 1.757812 -11.46875 3.03125 -12.8125 C 4.300781 -14.164062 6.039062 -14.84375 8.25 -14.84375 C 9.113281 -14.84375 9.929688 -14.726562 10.703125 -14.5 C 11.472656 -14.269531 12.195312 -13.921875 12.875 -13.453125 Z M 12.875 -13.453125 "/>
</g>
<g id="glyph-1-5">
<path d="M 6.84375 -12.640625 L 4.15625 -5.375 L 9.515625 -5.375 Z M 5.71875 -14.578125 L 7.953125 -14.578125 L 13.515625 0 L 11.46875 0 L 10.140625 -3.734375 L 3.5625 -3.734375 L 2.234375 0 L 0.15625 0 Z M 5.71875 -14.578125 "/>
</g>
<g id="glyph-1-6">
<path d="M 1.734375 -14.578125 L 3.71875 -14.578125 L 3.71875 -5.71875 C 3.71875 -4.15625 4 -3.03125 4.5625 -2.34375 C 5.132812 -1.65625 6.054688 -1.3125 7.328125 -1.3125 C 8.585938 -1.3125 9.5 -1.65625 10.0625 -2.34375 C 10.632812 -3.03125 10.921875 -4.15625 10.921875 -5.71875 L 10.921875 -14.578125 L 12.90625 -14.578125 L 12.90625 -5.484375 C 12.90625 -3.578125 12.429688 -2.140625 11.484375 -1.171875 C 10.546875 -0.203125 9.160156 0.28125 7.328125 0.28125 C 5.484375 0.28125 4.085938 -0.203125 3.140625 -1.171875 C 2.203125 -2.140625 1.734375 -3.578125 1.734375 -5.484375 Z M 1.734375 -14.578125 "/>
</g>
<g id="glyph-1-7">
<path d="M 6.859375 -5.5 C 5.398438 -5.5 4.390625 -5.332031 3.828125 -5 C 3.273438 -4.664062 3 -4.097656 3 -3.296875 C 3 -2.660156 3.207031 -2.15625 3.625 -1.78125 C 4.050781 -1.40625 4.625 -1.21875 5.34375 -1.21875 C 6.34375 -1.21875 7.140625 -1.570312 7.734375 -2.28125 C 8.335938 -2.988281 8.640625 -3.925781 8.640625 -5.09375 L 8.640625 -5.5 Z M 10.4375 -6.234375 L 10.4375 0 L 8.640625 0 L 8.640625 -1.65625 C 8.234375 -1 7.722656 -0.507812 7.109375 -0.1875 C 6.492188 0.125 5.742188 0.28125 4.859375 0.28125 C 3.742188 0.28125 2.851562 -0.03125 2.1875 -0.65625 C 1.53125 -1.289062 1.203125 -2.132812 1.203125 -3.1875 C 1.203125 -4.414062 1.613281 -5.34375 2.4375 -5.96875 C 3.257812 -6.59375 4.488281 -6.90625 6.125 -6.90625 L 8.640625 -6.90625 L 8.640625 -7.078125 C 8.640625 -7.910156 8.367188 -8.550781 7.828125 -9 C 7.285156 -9.445312 6.519531 -9.671875 5.53125 -9.671875 C 4.90625 -9.671875 4.296875 -9.597656 3.703125 -9.453125 C 3.117188 -9.304688 2.550781 -9.082031 2 -8.78125 L 2 -10.4375 C 2.65625 -10.695312 3.289062 -10.890625 3.90625 -11.015625 C 4.53125 -11.140625 5.132812 -11.203125 5.71875 -11.203125 C 7.300781 -11.203125 8.484375 -10.789062 9.265625 -9.96875 C 10.046875 -9.144531 10.4375 -7.898438 10.4375 -6.234375 Z M 10.4375 -6.234375 "/>
</g>
<g id="glyph-1-8">
<path d="M 3.65625 -14.046875 L 3.65625 -10.9375 L 7.359375 -10.9375 L 7.359375 -9.546875 L 3.65625 -9.546875 L 3.65625 -3.609375 C 3.65625 -2.710938 3.773438 -2.132812 4.015625 -1.875 C 4.265625 -1.625 4.765625 -1.5 5.515625 -1.5 L 7.359375 -1.5 L 7.359375 0 L 5.515625 0 C 4.128906 0 3.171875 -0.253906 2.640625 -0.765625 C 2.117188 -1.285156 1.859375 -2.234375 1.859375 -3.609375 L 1.859375 -9.546875 L 0.53125 -9.546875 L 0.53125 -10.9375 L 1.859375 -10.9375 L 1.859375 -14.046875 Z M 3.65625 -14.046875 "/>
</g>
<g id="glyph-1-9">
<path d="M -0.046875 -14.578125 L 2.078125 -14.578125 L 6.125 -8.578125 L 10.140625 -14.578125 L 12.25 -14.578125 L 7.09375 -6.9375 L 7.09375 0 L 5.125 0 L 5.125 -6.9375 Z M -0.046875 -14.578125 "/>
</g>
<g id="glyph-2-0">
<path d="M 1.59375 -7.390625 L 1.59375 -8.71875 L 10.984375 -5.3125 L 10.984375 -4.09375 L 1.59375 -0.6875 L 1.59375 -2.015625 L 9.140625 -4.6875 Z M 1.59375 -7.390625 "/>
</g>
<g id="glyph-2-1">
<path d="M 1.46875 -10.9375 L 2.953125 -10.9375 L 2.953125 0 L 1.46875 0 Z M 1.46875 -10.9375 "/>
</g>
<g id="glyph-2-2">
<path d="M 1.46875 -10.9375 L 3.46875 -10.9375 L 8.3125 -1.78125 L 8.3125 -10.9375 L 9.75 -10.9375 L 9.75 0 L 7.75 0 L 2.90625 -9.140625 L 2.90625 0 L 1.46875 0 Z M 1.46875 -10.9375 "/>
</g>
<g id="glyph-2-3">
<path d="M 8.03125 -10.578125 L 8.03125 -9.140625 C 7.46875 -9.398438 6.9375 -9.597656 6.4375 -9.734375 C 5.9375 -9.867188 5.457031 -9.9375 5 -9.9375 C 4.1875 -9.9375 3.5625 -9.78125 3.125 -9.46875 C 2.6875 -9.15625 2.46875 -8.707031 2.46875 -8.125 C 2.46875 -7.644531 2.613281 -7.28125 2.90625 -7.03125 C 3.195312 -6.789062 3.75 -6.59375 4.5625 -6.4375 L 5.453125 -6.25 C 6.554688 -6.039062 7.367188 -5.671875 7.890625 -5.140625 C 8.421875 -4.609375 8.6875 -3.898438 8.6875 -3.015625 C 8.6875 -1.953125 8.332031 -1.144531 7.625 -0.59375 C 6.914062 -0.0507812 5.875 0.21875 4.5 0.21875 C 3.976562 0.21875 3.425781 0.15625 2.84375 0.03125 C 2.257812 -0.0820312 1.65625 -0.253906 1.03125 -0.484375 L 1.03125 -2 C 1.632812 -1.664062 2.222656 -1.410156 2.796875 -1.234375 C 3.367188 -1.066406 3.9375 -0.984375 4.5 -0.984375 C 5.34375 -0.984375 5.992188 -1.148438 6.453125 -1.484375 C 6.910156 -1.816406 7.140625 -2.289062 7.140625 -2.90625 C 7.140625 -3.445312 6.972656 -3.867188 6.640625 -4.171875 C 6.316406 -4.472656 5.78125 -4.695312 5.03125 -4.84375 L 4.125 -5.03125 C 3.019531 -5.25 2.21875 -5.59375 1.71875 -6.0625 C 1.226562 -6.53125 0.984375 -7.179688 0.984375 -8.015625 C 0.984375 -8.984375 1.320312 -9.742188 2 -10.296875 C 2.6875 -10.859375 3.628906 -11.140625 4.828125 -11.140625 C 5.335938 -11.140625 5.859375 -11.09375 6.390625 -11 C 6.921875 -10.90625 7.46875 -10.765625 8.03125 -10.578125 Z M 8.03125 -10.578125 "/>
</g>
<g id="glyph-2-4">
<path d="M 6.65625 -5.125 C 6.976562 -5.019531 7.285156 -4.789062 7.578125 -4.4375 C 7.878906 -4.082031 8.179688 -3.597656 8.484375 -2.984375 L 9.984375 0 L 8.40625 0 L 7 -2.8125 C 6.632812 -3.539062 6.28125 -4.023438 5.9375 -4.265625 C 5.601562 -4.503906 5.144531 -4.625 4.5625 -4.625 L 2.953125 -4.625 L 2.953125 0 L 1.46875 0 L 1.46875 -10.9375 L 4.8125 -10.9375 C 6.0625 -10.9375 6.992188 -10.675781 7.609375 -10.15625 C 8.222656 -9.632812 8.53125 -8.84375 8.53125 -7.78125 C 8.53125 -7.09375 8.367188 -6.519531 8.046875 -6.0625 C 7.734375 -5.613281 7.269531 -5.300781 6.65625 -5.125 Z M 2.953125 -9.71875 L 2.953125 -5.84375 L 4.8125 -5.84375 C 5.519531 -5.84375 6.054688 -6.003906 6.421875 -6.328125 C 6.785156 -6.660156 6.96875 -7.144531 6.96875 -7.78125 C 6.96875 -8.425781 6.785156 -8.910156 6.421875 -9.234375 C 6.054688 -9.554688 5.519531 -9.71875 4.8125 -9.71875 Z M 2.953125 -9.71875 "/>
</g>
<g id="glyph-2-5">
</g>
<g id="glyph-2-6">
<path d="M 7.3125 -7.890625 L 7.3125 -6.625 C 6.9375 -6.832031 6.554688 -6.988281 6.171875 -7.09375 C 5.785156 -7.207031 5.398438 -7.265625 5.015625 -7.265625 C 4.140625 -7.265625 3.457031 -6.984375 2.96875 -6.421875 C 2.488281 -5.867188 2.25 -5.09375 2.25 -4.09375 C 2.25 -3.09375 2.488281 -2.316406 2.96875 -1.765625 C 3.457031 -1.210938 4.140625 -0.9375 5.015625 -0.9375 C 5.398438 -0.9375 5.785156 -0.988281 6.171875 -1.09375 C 6.554688 -1.195312 6.9375 -1.351562 7.3125 -1.5625 L 7.3125 -0.3125 C 6.9375 -0.132812 6.546875 -0.00390625 6.140625 0.078125 C 5.742188 0.171875 5.316406 0.21875 4.859375 0.21875 C 3.628906 0.21875 2.648438 -0.164062 1.921875 -0.9375 C 1.191406 -1.71875 0.828125 -2.769531 0.828125 -4.09375 C 0.828125 -5.425781 1.191406 -6.476562 1.921875 -7.25 C 2.660156 -8.019531 3.671875 -8.40625 4.953125 -8.40625 C 5.367188 -8.40625 5.773438 -8.359375 6.171875 -8.265625 C 6.566406 -8.179688 6.945312 -8.054688 7.3125 -7.890625 Z M 7.3125 -7.890625 "/>
</g>
<g id="glyph-2-7">
<path d="M 8.234375 -4.953125 L 8.234375 0 L 6.890625 0 L 6.890625 -4.90625 C 6.890625 -5.6875 6.738281 -6.269531 6.4375 -6.65625 C 6.132812 -7.039062 5.675781 -7.234375 5.0625 -7.234375 C 4.34375 -7.234375 3.769531 -7 3.34375 -6.53125 C 2.925781 -6.070312 2.71875 -5.441406 2.71875 -4.640625 L 2.71875 0 L 1.359375 0 L 1.359375 -11.390625 L 2.71875 -11.390625 L 2.71875 -6.921875 C 3.039062 -7.421875 3.421875 -7.789062 3.859375 -8.03125 C 4.296875 -8.28125 4.800781 -8.40625 5.375 -8.40625 C 6.3125 -8.40625 7.019531 -8.113281 7.5 -7.53125 C 7.988281 -6.945312 8.234375 -6.085938 8.234375 -4.953125 Z M 8.234375 -4.953125 "/>
</g>
<g id="glyph-2-8">
<path d="M 6.171875 -6.9375 C 6.015625 -7.03125 5.847656 -7.097656 5.671875 -7.140625 C 5.492188 -7.179688 5.296875 -7.203125 5.078125 -7.203125 C 4.316406 -7.203125 3.734375 -6.953125 3.328125 -6.453125 C 2.921875 -5.960938 2.71875 -5.253906 2.71875 -4.328125 L 2.71875 0 L 1.359375 0 L 1.359375 -8.203125 L 2.71875 -8.203125 L 2.71875 -6.921875 C 3 -7.421875 3.363281 -7.789062 3.8125 -8.03125 C 4.269531 -8.28125 4.828125 -8.40625 5.484375 -8.40625 C 5.578125 -8.40625 5.675781 -8.394531 5.78125 -8.375 C 5.894531 -8.363281 6.019531 -8.347656 6.15625 -8.328125 Z M 6.171875 -6.9375 "/>
</g>
<g id="glyph-2-9">
<path d="M 1.859375 -1.25 L 4.28125 -1.25 L 4.28125 -9.59375 L 1.640625 -9.0625 L 1.640625 -10.40625 L 4.265625 -10.9375 L 5.75 -10.9375 L 5.75 -1.25 L 8.15625 -1.25 L 8.15625 0 L 1.859375 0 Z M 1.859375 -1.25 "/>
</g>
<g id="glyph-2-10">
<path d="M 1.640625 -0.234375 L 1.640625 -1.578125 C 2.015625 -1.398438 2.390625 -1.265625 2.765625 -1.171875 C 3.148438 -1.078125 3.523438 -1.03125 3.890625 -1.03125 C 4.867188 -1.03125 5.613281 -1.359375 6.125 -2.015625 C 6.644531 -2.671875 6.941406 -3.671875 7.015625 -5.015625 C 6.734375 -4.585938 6.375 -4.257812 5.9375 -4.03125 C 5.5 -3.8125 5.019531 -3.703125 4.5 -3.703125 C 3.40625 -3.703125 2.535156 -4.03125 1.890625 -4.6875 C 1.253906 -5.351562 0.9375 -6.257812 0.9375 -7.40625 C 0.9375 -8.53125 1.269531 -9.429688 1.9375 -10.109375 C 2.601562 -10.796875 3.488281 -11.140625 4.59375 -11.140625 C 5.851562 -11.140625 6.816406 -10.648438 7.484375 -9.671875 C 8.148438 -8.703125 8.484375 -7.296875 8.484375 -5.453125 C 8.484375 -3.734375 8.070312 -2.359375 7.25 -1.328125 C 6.4375 -0.296875 5.34375 0.21875 3.96875 0.21875 C 3.59375 0.21875 3.210938 0.179688 2.828125 0.109375 C 2.453125 0.0351562 2.054688 -0.078125 1.640625 -0.234375 Z M 4.59375 -4.859375 C 5.257812 -4.859375 5.785156 -5.082031 6.171875 -5.53125 C 6.554688 -5.988281 6.75 -6.613281 6.75 -7.40625 C 6.75 -8.195312 6.554688 -8.820312 6.171875 -9.28125 C 5.785156 -9.738281 5.257812 -9.96875 4.59375 -9.96875 C 3.925781 -9.96875 3.398438 -9.738281 3.015625 -9.28125 C 2.628906 -8.820312 2.4375 -8.195312 2.4375 -7.40625 C 2.4375 -6.613281 2.628906 -5.988281 3.015625 -5.53125 C 3.398438 -5.082031 3.925781 -4.859375 4.59375 -4.859375 Z M 4.59375 -4.859375 "/>
</g>
<g id="glyph-2-11">
<path d="M 1.765625 -1.859375 L 3.296875 -1.859375 L 3.296875 0 L 1.765625 0 Z M 1.765625 -7.75 L 3.296875 -7.75 L 3.296875 -5.890625 L 1.765625 -5.890625 Z M 1.765625 -7.75 "/>
</g>
<g id="glyph-2-12">
<path d="M 1.234375 -10.9375 L 8.265625 -10.9375 L 8.265625 -10.3125 L 4.296875 0 L 2.75 0 L 6.484375 -9.6875 L 1.234375 -9.6875 Z M 1.234375 -10.9375 "/>
</g>
<g id="glyph-2-13">
<path d="M 1.625 -10.9375 L 7.421875 -10.9375 L 7.421875 -9.6875 L 2.96875 -9.6875 L 2.96875 -7.015625 C 3.1875 -7.085938 3.398438 -7.140625 3.609375 -7.171875 C 3.828125 -7.210938 4.046875 -7.234375 4.265625 -7.234375 C 5.484375 -7.234375 6.445312 -6.894531 7.15625 -6.21875 C 7.875 -5.550781 8.234375 -4.648438 8.234375 -3.515625 C 8.234375 -2.335938 7.863281 -1.421875 7.125 -0.765625 C 6.394531 -0.109375 5.363281 0.21875 4.03125 0.21875 C 3.570312 0.21875 3.101562 0.175781 2.625 0.09375 C 2.15625 0.0195312 1.664062 -0.09375 1.15625 -0.25 L 1.15625 -1.75 C 1.59375 -1.507812 2.046875 -1.328125 2.515625 -1.203125 C 2.984375 -1.085938 3.476562 -1.03125 4 -1.03125 C 4.851562 -1.03125 5.523438 -1.25 6.015625 -1.6875 C 6.503906 -2.132812 6.75 -2.742188 6.75 -3.515625 C 6.75 -4.273438 6.503906 -4.875 6.015625 -5.3125 C 5.523438 -5.757812 4.851562 -5.984375 4 -5.984375 C 3.601562 -5.984375 3.207031 -5.9375 2.8125 -5.84375 C 2.425781 -5.757812 2.03125 -5.625 1.625 -5.4375 Z M 1.625 -10.9375 "/>
</g>
<g id="glyph-2-14">
<path d="M 4.765625 -9.96875 C 4.003906 -9.96875 3.429688 -9.59375 3.046875 -8.84375 C 2.660156 -8.09375 2.46875 -6.960938 2.46875 -5.453125 C 2.46875 -3.953125 2.660156 -2.828125 3.046875 -2.078125 C 3.429688 -1.328125 4.003906 -0.953125 4.765625 -0.953125 C 5.535156 -0.953125 6.109375 -1.328125 6.484375 -2.078125 C 6.867188 -2.828125 7.0625 -3.953125 7.0625 -5.453125 C 7.0625 -6.960938 6.867188 -8.09375 6.484375 -8.84375 C 6.109375 -9.59375 5.535156 -9.96875 4.765625 -9.96875 Z M 4.765625 -11.140625 C 5.992188 -11.140625 6.929688 -10.648438 7.578125 -9.671875 C 8.222656 -8.703125 8.546875 -7.296875 8.546875 -5.453125 C 8.546875 -3.617188 8.222656 -2.210938 7.578125 -1.234375 C 6.929688 -0.265625 5.992188 0.21875 4.765625 0.21875 C 3.546875 0.21875 2.609375 -0.265625 1.953125 -1.234375 C 1.304688 -2.210938 0.984375 -3.617188 0.984375 -5.453125 C 0.984375 -7.296875 1.304688 -8.703125 1.953125 -9.671875 C 2.609375 -10.648438 3.546875 -11.140625 4.765625 -11.140625 Z M 4.765625 -11.140625 "/>
</g>
<g id="glyph-2-15">
<path d="M 2.875 -1.25 L 8.046875 -1.25 L 8.046875 0 L 1.09375 0 L 1.09375 -1.25 C 1.65625 -1.820312 2.421875 -2.597656 3.390625 -3.578125 C 4.359375 -4.554688 4.96875 -5.191406 5.21875 -5.484375 C 5.695312 -6.015625 6.03125 -6.460938 6.21875 -6.828125 C 6.40625 -7.203125 6.5 -7.566406 6.5 -7.921875 C 6.5 -8.503906 6.296875 -8.976562 5.890625 -9.34375 C 5.484375 -9.707031 4.953125 -9.890625 4.296875 -9.890625 C 3.828125 -9.890625 3.332031 -9.804688 2.8125 -9.640625 C 2.300781 -9.484375 1.753906 -9.238281 1.171875 -8.90625 L 1.171875 -10.40625 C 1.765625 -10.644531 2.320312 -10.828125 2.84375 -10.953125 C 3.363281 -11.078125 3.835938 -11.140625 4.265625 -11.140625 C 5.398438 -11.140625 6.300781 -10.851562 6.96875 -10.28125 C 7.644531 -9.71875 7.984375 -8.960938 7.984375 -8.015625 C 7.984375 -7.566406 7.898438 -7.140625 7.734375 -6.734375 C 7.566406 -6.328125 7.257812 -5.851562 6.8125 -5.3125 C 6.6875 -5.164062 6.296875 -4.753906 5.640625 -4.078125 C 4.992188 -3.398438 4.070312 -2.457031 2.875 -1.25 Z M 2.875 -1.25 "/>
</g>
<g id="glyph-2-16">
<path d="M 4.953125 -6.0625 C 4.285156 -6.0625 3.757812 -5.832031 3.375 -5.375 C 2.988281 -4.914062 2.796875 -4.296875 2.796875 -3.515625 C 2.796875 -2.722656 2.988281 -2.097656 3.375 -1.640625 C 3.757812 -1.179688 4.285156 -0.953125 4.953125 -0.953125 C 5.617188 -0.953125 6.144531 -1.179688 6.53125 -1.640625 C 6.914062 -2.097656 7.109375 -2.722656 7.109375 -3.515625 C 7.109375 -4.296875 6.914062 -4.914062 6.53125 -5.375 C 6.144531 -5.832031 5.617188 -6.0625 4.953125 -6.0625 Z M 7.890625 -10.6875 L 7.890625 -9.34375 C 7.515625 -9.519531 7.140625 -9.65625 6.765625 -9.75 C 6.390625 -9.84375 6.015625 -9.890625 5.640625 -9.890625 C 4.660156 -9.890625 3.910156 -9.554688 3.390625 -8.890625 C 2.878906 -8.234375 2.585938 -7.238281 2.515625 -5.90625 C 2.804688 -6.332031 3.164062 -6.660156 3.59375 -6.890625 C 4.03125 -7.117188 4.515625 -7.234375 5.046875 -7.234375 C 6.140625 -7.234375 7.003906 -6.898438 7.640625 -6.234375 C 8.273438 -5.566406 8.59375 -4.660156 8.59375 -3.515625 C 8.59375 -2.390625 8.257812 -1.484375 7.59375 -0.796875 C 6.9375 -0.117188 6.054688 0.21875 4.953125 0.21875 C 3.679688 0.21875 2.710938 -0.265625 2.046875 -1.234375 C 1.378906 -2.210938 1.046875 -3.617188 1.046875 -5.453125 C 1.046875 -7.179688 1.457031 -8.5625 2.28125 -9.59375 C 3.101562 -10.625 4.203125 -11.140625 5.578125 -11.140625 C 5.953125 -11.140625 6.328125 -11.097656 6.703125 -11.015625 C 7.078125 -10.941406 7.472656 -10.832031 7.890625 -10.6875 Z M 7.890625 -10.6875 "/>
</g>
<g id="glyph-2-17">
<path d="M 0.734375 -4.703125 L 4.6875 -4.703125 L 4.6875 -3.515625 L 0.734375 -3.515625 Z M 0.734375 -4.703125 "/>
</g>
<g id="glyph-2-18">
<path d="M 4.765625 -5.1875 C 4.066406 -5.1875 3.515625 -5 3.109375 -4.625 C 2.703125 -4.25 2.5 -3.734375 2.5 -3.078125 C 2.5 -2.421875 2.703125 -1.898438 3.109375 -1.515625 C 3.515625 -1.140625 4.066406 -0.953125 4.765625 -0.953125 C 5.472656 -0.953125 6.023438 -1.140625 6.421875 -1.515625 C 6.828125 -1.898438 7.03125 -2.421875 7.03125 -3.078125 C 7.03125 -3.734375 6.828125 -4.25 6.421875 -4.625 C 6.023438 -5 5.472656 -5.1875 4.765625 -5.1875 Z M 3.28125 -5.828125 C 2.65625 -5.984375 2.164062 -6.273438 1.8125 -6.703125 C 1.457031 -7.140625 1.28125 -7.671875 1.28125 -8.296875 C 1.28125 -9.171875 1.585938 -9.863281 2.203125 -10.375 C 2.828125 -10.882812 3.679688 -11.140625 4.765625 -11.140625 C 5.859375 -11.140625 6.710938 -10.882812 7.328125 -10.375 C 7.953125 -9.863281 8.265625 -9.171875 8.265625 -8.296875 C 8.265625 -7.671875 8.085938 -7.140625 7.734375 -6.703125 C 7.378906 -6.273438 6.882812 -5.984375 6.25 -5.828125 C 6.96875 -5.660156 7.523438 -5.332031 7.921875 -4.84375 C 8.316406 -4.363281 8.515625 -3.773438 8.515625 -3.078125 C 8.515625 -2.015625 8.191406 -1.195312 7.546875 -0.625 C 6.898438 -0.0625 5.972656 0.21875 4.765625 0.21875 C 3.554688 0.21875 2.628906 -0.0625 1.984375 -0.625 C 1.335938 -1.195312 1.015625 -2.015625 1.015625 -3.078125 C 1.015625 -3.773438 1.210938 -4.363281 1.609375 -4.84375 C 2.015625 -5.332031 2.570312 -5.660156 3.28125 -5.828125 Z M 2.75 -8.15625 C 2.75 -7.59375 2.925781 -7.148438 3.28125 -6.828125 C 3.632812 -6.515625 4.128906 -6.359375 4.765625 -6.359375 C 5.398438 -6.359375 5.894531 -6.515625 6.25 -6.828125 C 6.613281 -7.148438 6.796875 -7.59375 6.796875 -8.15625 C 6.796875 -8.726562 6.613281 -9.171875 6.25 -9.484375 C 5.894531 -9.804688 5.398438 -9.96875 4.765625 -9.96875 C 4.128906 -9.96875 3.632812 -9.804688 3.28125 -9.484375 C 2.925781 -9.171875 2.75 -8.726562 2.75 -8.15625 Z M 2.75 -8.15625 "/>
</g>
<g id="glyph-2-19">
<path d="M 4.65625 -11.375 C 4 -10.257812 3.507812 -9.148438 3.1875 -8.046875 C 2.875 -6.953125 2.71875 -5.835938 2.71875 -4.703125 C 2.71875 -3.578125 2.875 -2.460938 3.1875 -1.359375 C 3.507812 -0.253906 4 0.859375 4.65625 1.984375 L 3.484375 1.984375 C 2.742188 0.828125 2.191406 -0.300781 1.828125 -1.40625 C 1.472656 -2.507812 1.296875 -3.609375 1.296875 -4.703125 C 1.296875 -5.796875 1.472656 -6.894531 1.828125 -8 C 2.191406 -9.101562 2.742188 -10.226562 3.484375 -11.375 Z M 4.65625 -11.375 "/>
</g>
<g id="glyph-2-20">
<path d="M 8.4375 -4.4375 L 8.4375 -3.78125 L 2.234375 -3.78125 C 2.296875 -2.851562 2.578125 -2.144531 3.078125 -1.65625 C 3.578125 -1.175781 4.269531 -0.9375 5.15625 -0.9375 C 5.675781 -0.9375 6.175781 -1 6.65625 -1.125 C 7.144531 -1.25 7.628906 -1.4375 8.109375 -1.6875 L 8.109375 -0.421875 C 7.628906 -0.210938 7.132812 -0.0546875 6.625 0.046875 C 6.113281 0.160156 5.597656 0.21875 5.078125 0.21875 C 3.773438 0.21875 2.738281 -0.160156 1.96875 -0.921875 C 1.207031 -1.691406 0.828125 -2.722656 0.828125 -4.015625 C 0.828125 -5.359375 1.1875 -6.425781 1.90625 -7.21875 C 2.632812 -8.007812 3.613281 -8.40625 4.84375 -8.40625 C 5.945312 -8.40625 6.820312 -8.046875 7.46875 -7.328125 C 8.113281 -6.617188 8.4375 -5.65625 8.4375 -4.4375 Z M 7.078125 -4.828125 C 7.066406 -5.566406 6.859375 -6.15625 6.453125 -6.59375 C 6.054688 -7.039062 5.523438 -7.265625 4.859375 -7.265625 C 4.109375 -7.265625 3.503906 -7.050781 3.046875 -6.625 C 2.597656 -6.195312 2.34375 -5.597656 2.28125 -4.828125 Z M 7.078125 -4.828125 "/>
</g>
<g id="glyph-2-21">
<path d="M 0.453125 -8.203125 L 1.875 -8.203125 L 4.4375 -1.3125 L 7 -8.203125 L 8.4375 -8.203125 L 5.359375 0 L 3.515625 0 Z M 0.453125 -8.203125 "/>
</g>
<g id="glyph-2-22">
<path d="M 6.640625 -7.96875 L 6.640625 -6.6875 C 6.265625 -6.882812 5.867188 -7.03125 5.453125 -7.125 C 5.046875 -7.21875 4.625 -7.265625 4.1875 -7.265625 C 3.507812 -7.265625 3.003906 -7.160156 2.671875 -6.953125 C 2.335938 -6.753906 2.171875 -6.453125 2.171875 -6.046875 C 2.171875 -5.734375 2.289062 -5.488281 2.53125 -5.3125 C 2.769531 -5.132812 3.253906 -4.960938 3.984375 -4.796875 L 4.4375 -4.6875 C 5.394531 -4.488281 6.070312 -4.203125 6.46875 -3.828125 C 6.875 -3.453125 7.078125 -2.929688 7.078125 -2.265625 C 7.078125 -1.503906 6.773438 -0.898438 6.171875 -0.453125 C 5.578125 -0.00390625 4.75 0.21875 3.6875 0.21875 C 3.25 0.21875 2.789062 0.171875 2.3125 0.078125 C 1.84375 -0.00390625 1.34375 -0.128906 0.8125 -0.296875 L 0.8125 -1.6875 C 1.3125 -1.425781 1.800781 -1.234375 2.28125 -1.109375 C 2.769531 -0.984375 3.25 -0.921875 3.71875 -0.921875 C 4.351562 -0.921875 4.84375 -1.023438 5.1875 -1.234375 C 5.53125 -1.453125 5.703125 -1.757812 5.703125 -2.15625 C 5.703125 -2.519531 5.578125 -2.800781 5.328125 -3 C 5.078125 -3.195312 4.535156 -3.382812 3.703125 -3.5625 L 3.234375 -3.671875 C 2.398438 -3.847656 1.796875 -4.117188 1.421875 -4.484375 C 1.054688 -4.847656 0.875 -5.347656 0.875 -5.984375 C 0.875 -6.753906 1.144531 -7.347656 1.6875 -7.765625 C 2.238281 -8.191406 3.015625 -8.40625 4.015625 -8.40625 C 4.515625 -8.40625 4.984375 -8.367188 5.421875 -8.296875 C 5.867188 -8.222656 6.273438 -8.113281 6.640625 -7.96875 Z M 6.640625 -7.96875 "/>
</g>
<g id="glyph-2-23">
<path d="M 4.59375 -7.265625 C 3.875 -7.265625 3.300781 -6.976562 2.875 -6.40625 C 2.457031 -5.84375 2.25 -5.070312 2.25 -4.09375 C 2.25 -3.113281 2.457031 -2.34375 2.875 -1.78125 C 3.289062 -1.21875 3.863281 -0.9375 4.59375 -0.9375 C 5.3125 -0.9375 5.878906 -1.21875 6.296875 -1.78125 C 6.710938 -2.34375 6.921875 -3.113281 6.921875 -4.09375 C 6.921875 -5.0625 6.710938 -5.832031 6.296875 -6.40625 C 5.878906 -6.976562 5.3125 -7.265625 4.59375 -7.265625 Z M 4.59375 -8.40625 C 5.757812 -8.40625 6.675781 -8.019531 7.34375 -7.25 C 8.019531 -6.488281 8.359375 -5.4375 8.359375 -4.09375 C 8.359375 -2.75 8.019531 -1.691406 7.34375 -0.921875 C 6.675781 -0.160156 5.757812 0.21875 4.59375 0.21875 C 3.414062 0.21875 2.492188 -0.160156 1.828125 -0.921875 C 1.160156 -1.691406 0.828125 -2.75 0.828125 -4.09375 C 0.828125 -5.4375 1.160156 -6.488281 1.828125 -7.25 C 2.492188 -8.019531 3.414062 -8.40625 4.59375 -8.40625 Z M 4.59375 -8.40625 "/>
</g>
<g id="glyph-2-24">
<path d="M 7.796875 -6.625 C 8.140625 -7.226562 8.546875 -7.675781 9.015625 -7.96875 C 9.484375 -8.257812 10.035156 -8.40625 10.671875 -8.40625 C 11.523438 -8.40625 12.179688 -8.101562 12.640625 -7.5 C 13.109375 -6.90625 13.34375 -6.054688 13.34375 -4.953125 L 13.34375 0 L 11.984375 0 L 11.984375 -4.90625 C 11.984375 -5.695312 11.84375 -6.28125 11.5625 -6.65625 C 11.28125 -7.039062 10.859375 -7.234375 10.296875 -7.234375 C 9.597656 -7.234375 9.046875 -7 8.640625 -6.53125 C 8.234375 -6.070312 8.03125 -5.441406 8.03125 -4.640625 L 8.03125 0 L 6.671875 0 L 6.671875 -4.90625 C 6.671875 -5.695312 6.53125 -6.28125 6.25 -6.65625 C 5.976562 -7.039062 5.550781 -7.234375 4.96875 -7.234375 C 4.28125 -7.234375 3.734375 -7 3.328125 -6.53125 C 2.921875 -6.0625 2.71875 -5.429688 2.71875 -4.640625 L 2.71875 0 L 1.359375 0 L 1.359375 -8.203125 L 2.71875 -8.203125 L 2.71875 -6.921875 C 3.019531 -7.429688 3.382812 -7.804688 3.8125 -8.046875 C 4.25 -8.285156 4.765625 -8.40625 5.359375 -8.40625 C 5.953125 -8.40625 6.457031 -8.253906 6.875 -7.953125 C 7.289062 -7.648438 7.597656 -7.207031 7.796875 -6.625 Z M 7.796875 -6.625 "/>
</g>
<g id="glyph-2-25">
<path d="M 2.71875 -1.234375 L 2.71875 3.125 L 1.359375 3.125 L 1.359375 -8.203125 L 2.71875 -8.203125 L 2.71875 -6.953125 C 3 -7.441406 3.351562 -7.804688 3.78125 -8.046875 C 4.21875 -8.285156 4.738281 -8.40625 5.34375 -8.40625 C 6.332031 -8.40625 7.140625 -8.007812 7.765625 -7.21875 C 8.390625 -6.425781 8.703125 -5.382812 8.703125 -4.09375 C 8.703125 -2.800781 8.390625 -1.757812 7.765625 -0.96875 C 7.140625 -0.175781 6.332031 0.21875 5.34375 0.21875 C 4.738281 0.21875 4.21875 0.0976562 3.78125 -0.140625 C 3.351562 -0.378906 3 -0.742188 2.71875 -1.234375 Z M 7.296875 -4.09375 C 7.296875 -5.082031 7.09375 -5.859375 6.6875 -6.421875 C 6.28125 -6.984375 5.722656 -7.265625 5.015625 -7.265625 C 4.296875 -7.265625 3.734375 -6.984375 3.328125 -6.421875 C 2.921875 -5.859375 2.71875 -5.082031 2.71875 -4.09375 C 2.71875 -3.101562 2.921875 -2.328125 3.328125 -1.765625 C 3.734375 -1.203125 4.296875 -0.921875 5.015625 -0.921875 C 5.722656 -0.921875 6.28125 -1.203125 6.6875 -1.765625 C 7.09375 -2.328125 7.296875 -3.101562 7.296875 -4.09375 Z M 7.296875 -4.09375 "/>
</g>
<g id="glyph-2-26">
<path d="M 1.40625 -11.390625 L 2.765625 -11.390625 L 2.765625 0 L 1.40625 0 Z M 1.40625 -11.390625 "/>
</g>
<g id="glyph-2-27">
<path d="M 8.234375 -4.953125 L 8.234375 0 L 6.890625 0 L 6.890625 -4.90625 C 6.890625 -5.6875 6.738281 -6.269531 6.4375 -6.65625 C 6.132812 -7.039062 5.675781 -7.234375 5.0625 -7.234375 C 4.34375 -7.234375 3.769531 -7 3.34375 -6.53125 C 2.925781 -6.070312 2.71875 -5.441406 2.71875 -4.640625 L 2.71875 0 L 1.359375 0 L 1.359375 -8.203125 L 2.71875 -8.203125 L 2.71875 -6.921875 C 3.039062 -7.421875 3.421875 -7.789062 3.859375 -8.03125 C 4.296875 -8.28125 4.800781 -8.40625 5.375 -8.40625 C 6.3125 -8.40625 7.019531 -8.113281 7.5 -7.53125 C 7.988281 -6.945312 8.234375 -6.085938 8.234375 -4.953125 Z M 8.234375 -4.953125 "/>
</g>
<g id="glyph-2-28">
<path d="M 2.75 -10.53125 L 2.75 -8.203125 L 5.515625 -8.203125 L 5.515625 -7.15625 L 2.75 -7.15625 L 2.75 -2.703125 C 2.75 -2.035156 2.835938 -1.601562 3.015625 -1.40625 C 3.203125 -1.21875 3.578125 -1.125 4.140625 -1.125 L 5.515625 -1.125 L 5.515625 0 L 4.140625 0 C 3.097656 0 2.378906 -0.191406 1.984375 -0.578125 C 1.585938 -0.972656 1.390625 -1.679688 1.390625 -2.703125 L 1.390625 -7.15625 L 0.40625 -7.15625 L 0.40625 -8.203125 L 1.390625 -8.203125 L 1.390625 -10.53125 Z M 2.75 -10.53125 "/>
</g>
<g id="glyph-2-29">
<path d="M 1.203125 -11.375 L 2.375 -11.375 C 3.101562 -10.226562 3.648438 -9.101562 4.015625 -8 C 4.378906 -6.894531 4.5625 -5.796875 4.5625 -4.703125 C 4.5625 -3.609375 4.378906 -2.507812 4.015625 -1.40625 C 3.648438 -0.300781 3.101562 0.828125 2.375 1.984375 L 1.203125 1.984375 C 1.847656 0.859375 2.332031 -0.253906 2.65625 -1.359375 C 2.976562 -2.460938 3.140625 -3.578125 3.140625 -4.703125 C 3.140625 -5.835938 2.976562 -6.953125 2.65625 -8.046875 C 2.332031 -9.148438 1.847656 -10.257812 1.203125 -11.375 Z M 1.203125 -11.375 "/>
</g>
<g id="glyph-2-30">
<path d="M 1.46875 -10.9375 L 3.671875 -10.9375 L 6.46875 -3.5 L 9.265625 -10.9375 L 11.484375 -10.9375 L 11.484375 0 L 10.03125 0 L 10.03125 -9.609375 L 7.21875 -2.109375 L 5.734375 -2.109375 L 2.90625 -9.609375 L 2.90625 0 L 1.46875 0 Z M 1.46875 -10.9375 "/>
</g>
<g id="glyph-2-31">
<path d="M 2.953125 -5.21875 L 2.953125 -1.21875 L 5.328125 -1.21875 C 6.117188 -1.21875 6.707031 -1.378906 7.09375 -1.703125 C 7.476562 -2.035156 7.671875 -2.539062 7.671875 -3.21875 C 7.671875 -3.90625 7.476562 -4.410156 7.09375 -4.734375 C 6.707031 -5.054688 6.117188 -5.21875 5.328125 -5.21875 Z M 2.953125 -9.71875 L 2.953125 -6.421875 L 5.140625 -6.421875 C 5.859375 -6.421875 6.394531 -6.554688 6.75 -6.828125 C 7.101562 -7.097656 7.28125 -7.515625 7.28125 -8.078125 C 7.28125 -8.628906 7.101562 -9.039062 6.75 -9.3125 C 6.394531 -9.582031 5.859375 -9.71875 5.140625 -9.71875 Z M 1.46875 -10.9375 L 5.25 -10.9375 C 6.375 -10.9375 7.242188 -10.703125 7.859375 -10.234375 C 8.472656 -9.765625 8.78125 -9.097656 8.78125 -8.234375 C 8.78125 -7.566406 8.625 -7.035156 8.3125 -6.640625 C 8 -6.242188 7.535156 -5.992188 6.921875 -5.890625 C 7.648438 -5.734375 8.21875 -5.40625 8.625 -4.90625 C 9.03125 -4.414062 9.234375 -3.800781 9.234375 -3.0625 C 9.234375 -2.082031 8.898438 -1.328125 8.234375 -0.796875 C 7.566406 -0.265625 6.617188 0 5.390625 0 L 1.46875 0 Z M 1.46875 -10.9375 "/>
</g>
<g id="glyph-2-32">
<path d="M 1.46875 -10.9375 L 2.953125 -10.9375 L 2.953125 -1.25 L 8.28125 -1.25 L 8.28125 0 L 1.46875 0 Z M 1.46875 -10.9375 "/>
</g>
<g id="glyph-2-33">
<path d="M 6.09375 -5.890625 C 6.800781 -5.742188 7.351562 -5.429688 7.75 -4.953125 C 8.144531 -4.472656 8.34375 -3.878906 8.34375 -3.171875 C 8.34375 -2.097656 7.96875 -1.265625 7.21875 -0.671875 C 6.476562 -0.078125 5.425781 0.21875 4.0625 0.21875 C 3.601562 0.21875 3.128906 0.171875 2.640625 0.078125 C 2.160156 -0.015625 1.660156 -0.148438 1.140625 -0.328125 L 1.140625 -1.765625 C 1.554688 -1.523438 2.003906 -1.34375 2.484375 -1.21875 C 2.972656 -1.09375 3.484375 -1.03125 4.015625 -1.03125 C 4.941406 -1.03125 5.648438 -1.210938 6.140625 -1.578125 C 6.628906 -1.941406 6.875 -2.472656 6.875 -3.171875 C 6.875 -3.816406 6.644531 -4.320312 6.1875 -4.6875 C 5.738281 -5.050781 5.113281 -5.234375 4.3125 -5.234375 L 3.03125 -5.234375 L 3.03125 -6.453125 L 4.359375 -6.453125 C 5.085938 -6.453125 5.644531 -6.597656 6.03125 -6.890625 C 6.414062 -7.179688 6.609375 -7.597656 6.609375 -8.140625 C 6.609375 -8.703125 6.410156 -9.132812 6.015625 -9.4375 C 5.617188 -9.738281 5.050781 -9.890625 4.3125 -9.890625 C 3.90625 -9.890625 3.46875 -9.84375 3 -9.75 C 2.539062 -9.664062 2.03125 -9.53125 1.46875 -9.34375 L 1.46875 -10.671875 C 2.03125 -10.828125 2.554688 -10.941406 3.046875 -11.015625 C 3.535156 -11.097656 4 -11.140625 4.4375 -11.140625 C 5.5625 -11.140625 6.453125 -10.882812 7.109375 -10.375 C 7.765625 -9.863281 8.09375 -9.171875 8.09375 -8.296875 C 8.09375 -7.691406 7.914062 -7.179688 7.5625 -6.765625 C 7.21875 -6.347656 6.726562 -6.054688 6.09375 -5.890625 Z M 6.09375 -5.890625 "/>
</g>
<g id="glyph-2-34">
<path d="M 5.671875 -9.640625 L 1.9375 -3.8125 L 5.671875 -3.8125 Z M 5.28125 -10.9375 L 7.140625 -10.9375 L 7.140625 -3.8125 L 8.703125 -3.8125 L 8.703125 -2.578125 L 7.140625 -2.578125 L 7.140625 0 L 5.671875 0 L 5.671875 -2.578125 L 0.734375 -2.578125 L 0.734375 -4 Z M 5.28125 -10.9375 "/>
</g>
<g id="glyph-2-35">
<path d="M 5.125 -9.484375 L 3.125 -4.03125 L 7.140625 -4.03125 Z M 4.296875 -10.9375 L 5.96875 -10.9375 L 10.140625 0 L 8.59375 0 L 7.609375 -2.8125 L 2.671875 -2.8125 L 1.671875 0 L 0.125 0 Z M 4.296875 -10.9375 "/>
</g>
<g id="glyph-2-36">
<path d="M -0.046875 -10.9375 L 9.203125 -10.9375 L 9.203125 -9.6875 L 5.328125 -9.6875 L 5.328125 0 L 3.84375 0 L 3.84375 -9.6875 L -0.046875 -9.6875 Z M -0.046875 -10.9375 "/>
</g>
<g id="glyph-2-37">
<path d="M 2.953125 -9.71875 L 2.953125 -5.609375 L 4.8125 -5.609375 C 5.5 -5.609375 6.03125 -5.785156 6.40625 -6.140625 C 6.78125 -6.503906 6.96875 -7.015625 6.96875 -7.671875 C 6.96875 -8.328125 6.78125 -8.832031 6.40625 -9.1875 C 6.03125 -9.539062 5.5 -9.71875 4.8125 -9.71875 Z M 1.46875 -10.9375 L 4.8125 -10.9375 C 6.039062 -10.9375 6.96875 -10.65625 7.59375 -10.09375 C 8.21875 -9.539062 8.53125 -8.734375 8.53125 -7.671875 C 8.53125 -6.585938 8.21875 -5.769531 7.59375 -5.21875 C 6.96875 -4.664062 6.039062 -4.390625 4.8125 -4.390625 L 2.953125 -4.390625 L 2.953125 0 L 1.46875 0 Z M 1.46875 -10.9375 "/>
</g>
<g id="glyph-2-38">
<path d="M 9.65625 -10.09375 L 9.65625 -8.53125 C 9.15625 -9 8.625 -9.347656 8.0625 -9.578125 C 7.5 -9.804688 6.898438 -9.921875 6.265625 -9.921875 C 5.015625 -9.921875 4.054688 -9.535156 3.390625 -8.765625 C 2.734375 -8.003906 2.40625 -6.898438 2.40625 -5.453125 C 2.40625 -4.015625 2.734375 -2.910156 3.390625 -2.140625 C 4.054688 -1.378906 5.015625 -1 6.265625 -1 C 6.898438 -1 7.5 -1.113281 8.0625 -1.34375 C 8.625 -1.570312 9.15625 -1.921875 9.65625 -2.390625 L 9.65625 -0.84375 C 9.144531 -0.488281 8.597656 -0.222656 8.015625 -0.046875 C 7.441406 0.128906 6.832031 0.21875 6.1875 0.21875 C 4.53125 0.21875 3.222656 -0.285156 2.265625 -1.296875 C 1.316406 -2.316406 0.84375 -3.703125 0.84375 -5.453125 C 0.84375 -7.210938 1.316406 -8.597656 2.265625 -9.609375 C 3.222656 -10.628906 4.53125 -11.140625 6.1875 -11.140625 C 6.832031 -11.140625 7.445312 -11.050781 8.03125 -10.875 C 8.613281 -10.695312 9.15625 -10.4375 9.65625 -10.09375 Z M 9.65625 -10.09375 "/>
</g>
</g>
</defs>
<g fill="rgb(0%, 0%, 0%)" fill-opacity="1">
<use xlink:href="#glyph-0-0" x="50" y="50"/>
<use xlink:href="#glyph-0-1" x="63.928223" y="50"/>
<use xlink:href="#glyph-0-2" x="79.309082" y="50"/>
<use xlink:href="#glyph-0-1" x="95.178223" y="50"/>
<use xlink:href="#glyph-0-3" x="110.559082" y="50"/>
<use xlink:href="#glyph-0-4" x="126.403809" y="50"/>
</g>
<path fill-rule="nonzero" fill="rgb(94.901961%, 14.509804%, 14.509804%)" fill-opacity="1" d="M 50 75 L 75 75 L 75 100 L 50 100 Z M 50 75 "/>
<g fill="rgb(0%, 0%, 0%)" fill-opacity="1">
<use xlink:href="#glyph-1-0" x="80" y="95"/>
<use xlink:href="#glyph-1-1" x="91.835938" y="95"/>
<use xlink:href="#glyph-1-2" x="104.53125" y="95"/>
<use xlink:href="#glyph-1-0" x="115.527344" y="95"/>
</g>
<path fill-rule="nonzero" fill="rgb(94.117647%, 81.176471%, 10.196078%)" fill-opacity="1" d="M 250 75 L 275 75 L 275 100 L 250 100 Z M 250 75 "/>
<g fill="rgb(0%, 0%, 0%)" fill-opacity="1">
<use xlink:href="#glyph-1-3" x="280" y="95"/>
<use xlink:href="#glyph-1-4" x="295.498047" y="95"/>
<use xlink:href="#glyph-1-5" x="309.462891" y="95"/>
<use xlink:href="#glyph-1-6" x="323.144531" y="95"/>
<use xlink:href="#glyph-1-3" x="337.783203" y="95"/>
</g>
<path fill-rule="nonzero" fill="rgb(30.980392%, 83.137255%, 21.960784%)" fill-opacity="1" d="M 450 75 L 475 75 L 475 100 L 450 100 Z M 450 75 "/>
<g fill="rgb(0%, 0%, 0%)" fill-opacity="1">
<use xlink:href="#glyph-1-2" x="480" y="95"/>
<use xlink:href="#glyph-1-7" x="490.996094" y="95"/>
<use xlink:href="#glyph-1-8" x="503.251953" y="95"/>
<use xlink:href="#glyph-1-7" x="511.09375" y="95"/>
<use xlink:href="#glyph-1-1" x="523.349609" y="95"/>
</g>
<path fill-rule="nonzero" fill="rgb(13.333333%, 30.980392%, 92.156863%)" fill-opacity="1" d="M 650 75 L 675 75 L 675 100 L 650 100 Z M 650 75 "/>
<g fill="rgb(0%, 0%, 0%)" fill-opacity="1">
<use xlink:href="#glyph-1-9" x="680" y="95"/>
<use xlink:href="#glyph-1-9" x="692.216797" y="95"/>
<use xlink:href="#glyph-1-9" x="704.433594" y="95"/>
<use xlink:href="#glyph-1-9" x="716.650391" y="95"/>
<use xlink:href="#glyph-1-9" x="728.867188" y="95"/>
<use xlink:href="#glyph-1-9" x="741.083984" y="95"/>
<use xlink:href="#glyph-1-9" x="753.300781" y="95"/>
<use xlink:href="#glyph-1-9" x="765.517578" y="95"/>
<use xlink:href="#glyph-1-9" x="777.734375" y="95"/>
<use xlink:href="#glyph-1-9" x="789.951172" y="95"/>
</g>
<g fill="rgb(0%, 0%, 0%)" fill-opacity="1">
<use xlink:href="#glyph-2-0" x="50" y="165"/>
<use xlink:href="#glyph-2-1" x="62.568359" y="165"/>
<use xlink:href="#glyph-2-2" x="66.992188" y="165"/>
<use xlink:href="#glyph-2-3" x="78.212891" y="165"/>
<use xlink:href="#glyph-2-4" x="87.734375" y="165"/>
<use xlink:href="#glyph-2-5" x="98.156738" y="165"/>
<use xlink:href="#glyph-2-6" x="102.924805" y="165"/>
<use xlink:href="#glyph-2-7" x="111.171875" y="165"/>
<use xlink:href="#glyph-2-8" x="120.678711" y="165"/>
<use xlink:href="#glyph-2-9" x="126.845703" y="165"/>
<use xlink:href="#glyph-2-10" x="136.38916" y="165"/>
<use xlink:href="#glyph-2-11" x="145.932617" y="165"/>
<use xlink:href="#glyph-2-12" x="150.986328" y="165"/>
<use xlink:href="#glyph-2-9" x="160.529785" y="165"/>
<use xlink:href="#glyph-2-13" x="170.073242" y="165"/>
<use xlink:href="#glyph-2-14" x="179.616699" y="165"/>
<use xlink:href="#glyph-2-15" x="189.160156" y="165"/>
<use xlink:href="#glyph-2-16" x="198.703613" y="165"/>
<use xlink:href="#glyph-2-9" x="208.24707" y="165"/>
<use xlink:href="#glyph-2-17" x="217.790527" y="165"/>
<use xlink:href="#glyph-2-12" x="223.203125" y="165"/>
<use xlink:href="#glyph-2-9" x="232.746582" y="165"/>
<use xlink:href="#glyph-2-13" x="242.290039" y="165"/>
<use xlink:href="#glyph-2-14" x="251.833496" y="165"/>
<use xlink:href="#glyph-2-18" x="261.376953" y="165"/>
<use xlink:href="#glyph-2-14" x="270.92041" y="165"/>
<use xlink:href="#glyph-2-18" x="280.463867" y="165"/>
<use xlink:href="#glyph-2-5" x="290.007324" y="165"/>
<use xlink:href="#glyph-2-19" x="294.775391" y="165"/>
<use xlink:href="#glyph-2-8" x="300.627441" y="165"/>
<use xlink:href="#glyph-2-20" x="306.794434" y="165"/>
<use xlink:href="#glyph-2-21" x="316.022949" y="165"/>
<use xlink:href="#glyph-2-20" x="324.899902" y="165"/>
<use xlink:href="#glyph-2-8" x="334.128418" y="165"/>
<use xlink:href="#glyph-2-22" x="340.29541" y="165"/>
<use xlink:href="#glyph-2-20" x="348.110352" y="165"/>
<use xlink:href="#glyph-2-5" x="357.338867" y="165"/>
<use xlink:href="#glyph-2-6" x="362.106934" y="165"/>
<use xlink:href="#glyph-2-23" x="370.354004" y="165"/>
<use xlink:href="#glyph-2-24" x="379.53125" y="165"/>
<use xlink:href="#glyph-2-25" x="394.143066" y="165"/>
<use xlink:href="#glyph-2-26" x="403.664551" y="165"/>
<use xlink:href="#glyph-2-20" x="407.832031" y="165"/>
<use xlink:href="#glyph-2-24" x="417.060547" y="165"/>
<use xlink:href="#glyph-2-20" x="431.672363" y="165"/>
<use xlink:href="#glyph-2-27" x="440.900879" y="165"/>
<use xlink:href="#glyph-2-28" x="450.407715" y="165"/>
<use xlink:href="#glyph-2-29" x="456.289062" y="165"/>
</g>
<path fill="none" stroke-width="2" stroke-linecap="butt" stroke-linejoin="miter" stroke="rgb(0%, 0%, 0%)" stroke-opacity="1" stroke-miterlimit="10" d="M 50 200 L 326 200 "/>
<path fill="none" stroke-width="2" stroke-linecap="butt" stroke-linejoin="miter" stroke="rgb(0%, 0%, 0%)" stroke-opacity="1" stroke-miterlimit="10" d="M 326 175 L 362 175 L 362 225 L 326 225 Z M 326 175 "/>
<path fill="none" stroke-width="2" stroke-linecap="butt" stroke-linejoin="miter" stroke="rgb(0%, 0%, 0%)" stroke-opacity="1" stroke-miterlimit="10" d="M 362 200 L 598 200 "/>
<path fill-rule="nonzero" fill="rgb(94.901961%, 14.509804%, 14.509804%)" fill-opacity="1" d="M 139 175 L 143 175 L 143 185 L 139 185 Z M 139 175 "/>
<path fill-rule="nonzero" fill="rgb(94.901961%, 14.509804%, 14.509804%)" fill-opacity="1" d="M 156 175 L 160 175 L 160 185 L 156 185 Z M 156 175 "/>
<path fill-rule="nonzero" fill="rgb(94.901961%, 14.509804%, 14.509804%)" fill-opacity="1" d="M 226 175 L 230 175 L 230 185 L 226 185 Z M 226 175 "/>
<path fill-rule="nonzero" fill="rgb(94.901961%, 14.509804%, 14.509804%)" fill-opacity="1" d="M 347 175 L 351 175 L 351 185 L 347 185 Z M 347 175 "/>
<path fill-rule="nonzero" fill="rgb(94.901961%, 14.509804%, 14.509804%)" fill-opacity="1" d="M 388 175 L 392 175 L 392 185 L 388 185 Z M 388 175 "/>
<path fill-rule="nonzero" fill="rgb(94.901961%, 14.509804%, 14.509804%)" fill-opacity="1" d="M 392 175 L 396 175 L 396 185 L 392 185 Z M 392 175 "/>
<path fill-rule="nonzero" fill="rgb(94.901961%, 14.509804%, 14.509804%)" fill-opacity="1" d="M 415 175 L 419 175 L 419 185 L 415 185 Z M 415 175 "/>
<path fill-rule="nonzero" fill="rgb(94.901961%, 14.509804%, 14.509804%)" fill-opacity="1" d="M 426 175 L 430 175 L 430 185 L 426 185 Z M 426 175 "/>
<path fill-rule="nonzero" fill="rgb(94.901961%, 14.509804%, 14.509804%)" fill-opacity="1" d="M 479 175 L 483 175 L 483 185 L 479 185 Z M 479 175 "/>
<path fill-rule="nonzero" fill="rgb(94.901961%, 14.509804%, 14.509804%)" fill-opacity="1" d="M 493 175 L 497 175 L 497 185 L 493 185 Z M 493 175 "/>
<path fill-rule="nonzero" fill="rgb(94.901961%, 14.509804%, 14.509804%)" fill-opacity="1" d="M 517 175 L 521 175 L 521 185 L 517 185 Z M 517 175 "/>
<path fill-rule="nonzero" fill="rgb(94.901961%, 14.509804%, 14.509804%)" fill-opacity="1" d="M 580 175 L 584 175 L 584 185 L 580 185 Z M 580 175 "/>
<path fill-rule="nonzero" fill="rgb(94.117647%, 81.176471%, 10.196078%)" fill-opacity="1" d="M 461 185 L 466 185 L 466 195 L 461 195 Z M 461 185 "/>
<path fill-rule="nonzero" fill="rgb(94.117647%, 81.176471%, 10.196078%)" fill-opacity="1" d="M 543 185 L 548 185 L 548 195 L 543 195 Z M 543 185 "/>
<path fill-rule="nonzero" fill="rgb(30.980392%, 83.137255%, 21.960784%)" fill-opacity="1" d="M 588 195 L 593 195 L 593 205 L 588 205 Z M 588 195 "/>
<path fill-rule="nonzero" fill="rgb(13.333333%, 30.980392%, 92.156863%)" fill-opacity="1" d="M 123 205 L 133 205 L 133 215 L 123 215 Z M 123 205 "/>
<g fill="rgb(0%, 0%, 0%)" fill-opacity="1">
<use xlink:href="#glyph-2-0" x="50" y="265"/>
<use xlink:href="#glyph-2-30" x="62.568359" y="265"/>
<use xlink:href="#glyph-2-31" x="75.510254" y="265"/>
<use xlink:href="#glyph-2-2" x="85.800781" y="265"/>
<use xlink:href="#glyph-2-32" x="97.021484" y="265"/>
<use xlink:href="#glyph-2-5" x="105.378418" y="265"/>
<use xlink:href="#glyph-2-6" x="110.146484" y="265"/>
<use xlink:href="#glyph-2-7" x="118.393555" y="265"/>
<use xlink:href="#glyph-2-8" x="127.900391" y="265"/>
<use xlink:href="#glyph-2-33" x="134.067383" y="265"/>
<use xlink:href="#glyph-2-11" x="143.61084" y="265"/>
<use xlink:href="#glyph-2-9" x="148.664551" y="265"/>
<use xlink:href="#glyph-2-13" x="158.208008" y="265"/>
<use xlink:href="#glyph-2-15" x="167.751465" y="265"/>
<use xlink:href="#glyph-2-34" x="177.294922" y="265"/>
<use xlink:href="#glyph-2-34" x="186.838379" y="265"/>
<use xlink:href="#glyph-2-16" x="196.381836" y="265"/>
<use xlink:href="#glyph-2-34" x="205.925293" y="265"/>
<use xlink:href="#glyph-2-16" x="215.46875" y="265"/>
<use xlink:href="#glyph-2-9" x="225.012207" y="265"/>
<use xlink:href="#glyph-2-17" x="234.555664" y="265"/>
<use xlink:href="#glyph-2-9" x="239.968262" y="265"/>
<use xlink:href="#glyph-2-13" x="249.511719" y="265"/>
<use xlink:href="#glyph-2-15" x="259.055176" y="265"/>
<use xlink:href="#glyph-2-34" x="268.598633" y="265"/>
<use xlink:href="#glyph-2-34" x="278.14209" y="265"/>
<use xlink:href="#glyph-2-12" x="287.685547" y="265"/>
<use xlink:href="#glyph-2-14" x="297.229004" y="265"/>
<use xlink:href="#glyph-2-14" x="306.772461" y="265"/>
<use xlink:href="#glyph-2-33" x="316.315918" y="265"/>
<use xlink:href="#glyph-2-5" x="325.859375" y="265"/>
</g>
<path fill="none" stroke-width="2" stroke-linecap="butt" stroke-linejoin="miter" stroke="rgb(0%, 0%, 0%)" stroke-opacity="1" stroke-miterlimit="10" d="M 50 300 L 293 300 "/>
<path fill="none" stroke-width="2" stroke-linecap="butt" stroke-linejoin="miter" stroke="rgb(0%, 0%, 0%)" stroke-opacity="1" stroke-miterlimit="10" d="M 293 275 L 347 275 L 347 325 L 293 325 Z M 293 275 "/>
<path fill="none" stroke-width="2" stroke-linecap="butt" stroke-linejoin="miter" stroke="rgb(0%, 0%, 0%)" stroke-opacity="1" stroke-miterlimit="10" d="M 347 300 L 593 300 "/>
<path fill-rule="nonzero" fill="rgb(94.901961%, 14.509804%, 14.509804%)" fill-opacity="1" d="M 98 275 L 102 275 L 102 285 L 98 285 Z M 98 275 "/>
<path fill-rule="nonzero" fill="rgb(94.901961%, 14.509804%, 14.509804%)" fill-opacity="1" d="M 113 275 L 117 275 L 117 285 L 113 285 Z M 113 275 "/>
<path fill-rule="nonzero" fill="rgb(94.901961%, 14.509804%, 14.509804%)" fill-opacity="1" d="M 196 275 L 200 275 L 200 285 L 196 285 Z M 196 275 "/>
<path fill-rule="nonzero" fill="rgb(94.901961%, 14.509804%, 14.509804%)" fill-opacity="1" d="M 218 275 L 222 275 L 222 285 L 218 285 Z M 218 275 "/>
<path fill-rule="nonzero" fill="rgb(94.901961%, 14.509804%, 14.509804%)" fill-opacity="1" d="M 222 275 L 226 275 L 226 285 L 222 285 Z M 222 275 "/>
<path fill-rule="nonzero" fill="rgb(94.901961%, 14.509804%, 14.509804%)" fill-opacity="1" d="M 239 275 L 243 275 L 243 285 L 239 285 Z M 239 275 "/>
<path fill-rule="nonzero" fill="rgb(94.901961%, 14.509804%, 14.509804%)" fill-opacity="1" d="M 261 275 L 265 275 L 265 285 L 261 285 Z M 261 275 "/>
<path fill-rule="nonzero" fill="rgb(94.901961%, 14.509804%, 14.509804%)" fill-opacity="1" d="M 271 275 L 275 275 L 275 285 L 271 285 Z M 271 275 "/>
<path fill-rule="nonzero" fill="rgb(94.901961%, 14.509804%, 14.509804%)" fill-opacity="1" d="M 275 275 L 279 275 L 279 285 L 275 285 Z M 275 275 "/>
<path fill-rule="nonzero" fill="rgb(94.901961%, 14.509804%, 14.509804%)" fill-opacity="1" d="M 282 275 L 286 275 L 286 285 L 282 285 Z M 282 275 "/>
<path fill-rule="nonzero" fill="rgb(94.117647%, 81.176471%, 10.196078%)" fill-opacity="1" d="M 110 285 L 115 285 L 115 295 L 110 295 Z M 110 285 "/>
<path fill-rule="nonzero" fill="rgb(94.117647%, 81.176471%, 10.196078%)" fill-opacity="1" d="M 375 285 L 380 285 L 380 295 L 375 295 Z M 375 285 "/>
<path fill-rule="nonzero" fill="rgb(30.980392%, 83.137255%, 21.960784%)" fill-opacity="1" d="M 522 295 L 527 295 L 527 305 L 522 305 Z M 522 295 "/>
<path fill-rule="nonzero" fill="rgb(13.333333%, 30.980392%, 92.156863%)" fill-opacity="1" d="M 401 305 L 411 305 L 411 315 L 401 315 Z M 401 305 "/>
<path fill-rule="nonzero" fill="rgb(13.333333%, 30.980392%, 92.156863%)" fill-opacity="1" d="M 432 305 L 442 305 L 442 315 L 432 315 Z M 432 305 "/>
<g fill="rgb(0%, 0%, 0%)" fill-opacity="1">
<use xlink:href="#glyph-2-0" x="50" y="365"/>
<use xlink:href="#glyph-2-35" x="62.568359" y="365"/>
<use xlink:href="#glyph-2-36" x="72.82959" y="365"/>
<use xlink:href="#glyph-2-37" x="81.992188" y="365"/>
<use xlink:href="#glyph-2-15" x="91.037598" y="365"/>
<use xlink:href="#glyph-2-35" x="100.581055" y="365"/>
<use xlink:href="#glyph-2-9" x="110.842285" y="365"/>
<use xlink:href="#glyph-2-5" x="120.385742" y="365"/>
<use xlink:href="#glyph-2-6" x="125.153809" y="365"/>
<use xlink:href="#glyph-2-7" x="133.400879" y="365"/>
<use xlink:href="#glyph-2-8" x="142.907715" y="365"/>
<use xlink:href="#glyph-2-9" x="149.074707" y="365"/>
<use xlink:href="#glyph-2-16" x="158.618164" y="365"/>
<use xlink:href="#glyph-2-11" x="168.161621" y="365"/>
<use xlink:href="#glyph-2-15" x="173.215332" y="365"/>
<use xlink:href="#glyph-2-18" x="182.758789" y="365"/>
<use xlink:href="#glyph-2-10" x="192.302246" y="365"/>
<use xlink:href="#glyph-2-14" x="201.845703" y="365"/>
<use xlink:href="#glyph-2-33" x="211.38916" y="365"/>
<use xlink:href="#glyph-2-34" x="220.932617" y="365"/>
<use xlink:href="#glyph-2-16" x="230.476074" y="365"/>
<use xlink:href="#glyph-2-12" x="240.019531" y="365"/>
<use xlink:href="#glyph-2-17" x="249.562988" y="365"/>
<use xlink:href="#glyph-2-15" x="254.975586" y="365"/>
<use xlink:href="#glyph-2-18" x="264.519043" y="365"/>
<use xlink:href="#glyph-2-10" x="274.0625" y="365"/>
<use xlink:href="#glyph-2-14" x="283.605957" y="365"/>
<use xlink:href="#glyph-2-34" x="293.149414" y="365"/>
<use xlink:href="#glyph-2-14" x="302.692871" y="365"/>
<use xlink:href="#glyph-2-34" x="312.236328" y="365"/>
<use xlink:href="#glyph-2-34" x="321.779785" y="365"/>
<use xlink:href="#glyph-2-5" x="331.323242" y="365"/>
</g>
<path fill="none" stroke-width="2" stroke-linecap="butt" stroke-linejoin="miter" stroke="rgb(0%, 0%, 0%)" stroke-opacity="1" stroke-miterlimit="10" d="M 50 400 L 283 400 "/>
<path fill="none" stroke-width="2" stroke-linecap="butt" stroke-linejoin="miter" stroke="rgb(0%, 0%, 0%)" stroke-opacity="1" stroke-miterlimit="10" d="M 283 375 L 410 375 L 410 425 L 283 425 Z M 283 375 "/>
<path fill="none" stroke-width="2" stroke-linecap="butt" stroke-linejoin="miter" stroke="rgb(0%, 0%, 0%)" stroke-opacity="1" stroke-miterlimit="10" d="M 410 400 L 628 400 "/>
<path fill-rule="nonzero" fill="rgb(94.901961%, 14.509804%, 14.509804%)" fill-opacity="1" d="M 81 375 L 85 375 L 85 385 L 81 385 Z M 81 375 "/>
<path fill-rule="nonzero" fill="rgb(94.901961%, 14.509804%, 14.509804%)" fill-opacity="1" d="M 90 375 L 94 375 L 94 385 L 90 385 Z M 90 375 "/>
<path fill-rule="nonzero" fill="rgb(94.901961%, 14.509804%, 14.509804%)" fill-opacity="1" d="M 95 375 L 99 375 L 99 385 L 95 385 Z M 95 375 "/>
<path fill-rule="nonzero" fill="rgb(94.901961%, 14.509804%, 14.509804%)" fill-opacity="1" d="M 147 375 L 151 375 L 151 385 L 147 385 Z M 147 375 "/>
<path fill-rule="nonzero" fill="rgb(94.901961%, 14.509804%, 14.509804%)" fill-opacity="1" d="M 163 375 L 167 375 L 167 385 L 163 385 Z M 163 375 "/>
<path fill-rule="nonzero" fill="rgb(94.901961%, 14.509804%, 14.509804%)" fill-opacity="1" d="M 198 375 L 202 375 L 202 385 L 198 385 Z M 198 375 "/>
<path fill-rule="nonzero" fill="rgb(94.901961%, 14.509804%, 14.509804%)" fill-opacity="1" d="M 233 375 L 237 375 L 237 385 L 233 385 Z M 233 375 "/>
<path fill-rule="nonzero" fill="rgb(94.901961%, 14.509804%, 14.509804%)" fill-opacity="1" d="M 244 375 L 248 375 L 248 385 L 244 385 Z M 244 375 "/>
<path fill-rule="nonzero" fill="rgb(94.901961%, 14.509804%, 14.509804%)" fill-opacity="1" d="M 258 375 L 262 375 L 262 385 L 258 385 Z M 258 375 "/>
<path fill-rule="nonzero" fill="rgb(94.901961%, 14.509804%, 14.509804%)" fill-opacity="1" d="M 340 375 L 344 375 L 344 385 L 340 385 Z M 340 375 "/>
<path fill-rule="nonzero" fill="rgb(94.901961%, 14.509804%, 14.509804%)" fill-opacity="1" d="M 355 375 L 359 375 L 359 385 L 355 385 Z M 355 375 "/>
<path fill-rule="nonzero" fill="rgb(94.901961%, 14.509804%, 14.509804%)" fill-opacity="1" d="M 360 375 L 364 375 L 364 385 L 360 385 Z M 360 375 "/>
<path fill-rule="nonzero" fill="rgb(94.901961%, 14.509804%, 14.509804%)" fill-opacity="1" d="M 366 375 L 370 375 L 370 385 L 366 385 Z M 366 375 "/>
<path fill-rule="nonzero" fill="rgb(94.901961%, 14.509804%, 14.509804%)" fill-opacity="1" d="M 375 375 L 379 375 L 379 385 L 375 385 Z M 375 375 "/>
<path fill-rule="nonzero" fill="rgb(94.901961%, 14.509804%, 14.509804%)" fill-opacity="1" d="M 416 375 L 420 375 L 420 385 L 416 385 Z M 416 375 "/>
<path fill-rule="nonzero" fill="rgb(94.901961%, 14.509804%, 14.509804%)" fill-opacity="1" d="M 441 375 L 445 375 L 445 385 L 441 385 Z M 441 375 "/>
<path fill-rule="nonzero" fill="rgb(94.901961%, 14.509804%, 14.509804%)" fill-opacity="1" d="M 447 375 L 451 375 L 451 385 L 447 385 Z M 447 375 "/>
<path fill-rule="nonzero" fill="rgb(94.901961%, 14.509804%, 14.509804%)" fill-opacity="1" d="M 453 375 L 457 375 L 457 385 L 453 385 Z M 453 375 "/>
<path fill-rule="nonzero" fill="rgb(94.901961%, 14.509804%, 14.509804%)" fill-opacity="1" d="M 458 375 L 462 375 L 462 385 L 458 385 Z M 458 375 "/>
<path fill-rule="nonzero" fill="rgb(94.901961%, 14.509804%, 14.509804%)" fill-opacity="1" d="M 478 375 L 482 375 L 482 385 L 478 385 Z M 478 375 "/>
<path fill-rule="nonzero" fill="rgb(94.901961%, 14.509804%, 14.509804%)" fill-opacity="1" d="M 525 375 L 529 375 L 529 385 L 525 385 Z M 525 375 "/>
<path fill-rule="nonzero" fill="rgb(94.901961%, 14.509804%, 14.509804%)" fill-opacity="1" d="M 545 375 L 549 375 L 549 385 L 545 385 Z M 545 375 "/>
<path fill-rule="nonzero" fill="rgb(94.901961%, 14.509804%, 14.509804%)" fill-opacity="1" d="M 550 375 L 554 375 L 554 385 L 550 385 Z M 550 375 "/>
<path fill-rule="nonzero" fill="rgb(94.901961%, 14.509804%, 14.509804%)" fill-opacity="1" d="M 560 375 L 564 375 L 564 385 L 560 385 Z M 560 375 "/>
<path fill-rule="nonzero" fill="rgb(94.901961%, 14.509804%, 14.509804%)" fill-opacity="1" d="M 571 375 L 575 375 L 575 385 L 571 385 Z M 571 375 "/>
<path fill-rule="nonzero" fill="rgb(94.901961%, 14.509804%, 14.509804%)" fill-opacity="1" d="M 585 375 L 589 375 L 589 385 L 585 385 Z M 585 375 "/>
<path fill-rule="nonzero" fill="rgb(30.980392%, 83.137255%, 21.960784%)" fill-opacity="1" d="M 278 395 L 283 395 L 283 405 L 278 405 Z M 278 395 "/>
<path fill-rule="nonzero" fill="rgb(13.333333%, 30.980392%, 92.156863%)" fill-opacity="1" d="M 67 405 L 77 405 L 77 415 L 67 415 Z M 67 405 "/>
<path fill-rule="nonzero" fill="rgb(13.333333%, 30.980392%, 92.156863%)" fill-opacity="1" d="M 291 405 L 301 405 L 301 415 L 291 415 Z M 291 405 "/>
<path fill-rule="nonzero" fill="rgb(13.333333%, 30.980392%, 92.156863%)" fill-opacity="1" d="M 331 405 L 341 405 L 341 415 L 331 415 Z M 331 405 "/>
<g fill="rgb(0%, 0%, 0%)" fill-opacity="1">
<use xlink:href="#glyph-2-0" x="50" y="465"/>
<use xlink:href="#glyph-2-38" x="62.568359" y="465"/>
<use xlink:href="#glyph-2-32" x="73.041992" y="465"/>
<use xlink:href="#glyph-2-35" x="81.398926" y="465"/>
<use xlink:href="#glyph-2-3" x="91.660156" y="465"/>
<use xlink:href="#glyph-2-37" x="101.181641" y="465"/>
<use xlink:href="#glyph-2-9" x="110.227051" y="465"/>
<use xlink:href="#glyph-2-5" x="119.770508" y="465"/>
<use xlink:href="#glyph-2-6" x="124.538574" y="465"/>
<use xlink:href="#glyph-2-7" x="132.785645" y="465"/>
<use xlink:href="#glyph-2-8" x="142.29248" y="465"/>
<use xlink:href="#glyph-2-15" x="148.459473" y="465"/>
<use xlink:href="#glyph-2-11" x="158.00293" y="465"/>
<use xlink:href="#glyph-2-9" x="163.056641" y="465"/>
<use xlink:href="#glyph-2-15" x="172.600098" y="465"/>
<use xlink:href="#glyph-2-9" x="182.143555" y="465"/>
<use xlink:href="#glyph-2-34" x="191.687012" y="465"/>
<use xlink:href="#glyph-2-34" x="201.230469" y="465"/>
<use xlink:href="#glyph-2-34" x="210.773926" y="465"/>
<use xlink:href="#glyph-2-13" x="220.317383" y="465"/>
<use xlink:href="#glyph-2-10" x="229.86084" y="465"/>
<use xlink:href="#glyph-2-33" x="239.404297" y="465"/>
<use xlink:href="#glyph-2-17" x="248.947754" y="465"/>
<use xlink:href="#glyph-2-9" x="254.360352" y="465"/>
<use xlink:href="#glyph-2-15" x="263.903809" y="465"/>
<use xlink:href="#glyph-2-9" x="273.447266" y="465"/>
<use xlink:href="#glyph-2-34" x="282.990723" y="465"/>
<use xlink:href="#glyph-2-34" x="292.53418" y="465"/>
<use xlink:href="#glyph-2-13" x="302.077637" y="465"/>
<use xlink:href="#glyph-2-33" x="311.621094" y="465"/>
<use xlink:href="#glyph-2-16" x="321.164551" y="465"/>
<use xlink:href="#glyph-2-33" x="330.708008" y="465"/>
<use xlink:href="#glyph-2-5" x="340.251465" y="465"/>
<use xlink:href="#glyph-2-19" x="345.019531" y="465"/>
<use xlink:href="#glyph-2-8" x="350.871582" y="465"/>
<use xlink:href="#glyph-2-20" x="357.038574" y="465"/>
<use xlink:href="#glyph-2-21" x="366.26709" y="465"/>
<use xlink:href="#glyph-2-20" x="375.144043" y="465"/>
<use xlink:href="#glyph-2-8" x="384.372559" y="465"/>
<use xlink:href="#glyph-2-22" x="390.539551" y="465"/>
<use xlink:href="#glyph-2-20" x="398.354492" y="465"/>
<use xlink:href="#glyph-2-5" x="407.583008" y="465"/>
<use xlink:href="#glyph-2-6" x="412.351074" y="465"/>
<use xlink:href="#glyph-2-23" x="420.598145" y="465"/>
<use xlink:href="#glyph-2-24" x="429.775391" y="465"/>
<use xlink:href="#glyph-2-25" x="444.387207" y="465"/>
<use xlink:href="#glyph-2-26" x="453.908691" y="465"/>
<use xlink:href="#glyph-2-20" x="458.076172" y="465"/>
<use xlink:href="#glyph-2-24" x="467.304688" y="465"/>
<use xlink:href="#glyph-2-20" x="481.916504" y="465"/>
<use xlink:href="#glyph-2-27" x="491.14502" y="465"/>
<use xlink:href="#glyph-2-28" x="500.651855" y="465"/>
<use xlink:href="#glyph-2-29" x="506.533203" y="465"/>
</g>
<path fill="none" stroke-width="2" stroke-linecap="butt" stroke-linejoin="miter" stroke="rgb(0%, 0%, 0%)" stroke-opacity="1" stroke-miterlimit="10" d="M 50 500 L 451 500 "/>
<path fill="none" stroke-width="2" stroke-linecap="butt" stroke-linejoin="miter" stroke="rgb(0%, 0%, 0%)" stroke-opacity="1" stroke-miterlimit="10" d="M 451 475 L 475 475 L 475 525 L 451 525 Z M 451 475 "/>
<path fill="none" stroke-width="2" stroke-linecap="butt" stroke-linejoin="miter" stroke="rgb(0%, 0%, 0%)" stroke-opacity="1" stroke-miterlimit="10" d="M 475 500 L 821 500 "/>
<path fill-rule="nonzero" fill="rgb(94.901961%, 14.509804%, 14.509804%)" fill-opacity="1" d="M 52 475 L 56 475 L 56 485 L 52 485 Z M 52 475 "/>
<path fill-rule="nonzero" fill="rgb(94.901961%, 14.509804%, 14.509804%)" fill-opacity="1" d="M 100 475 L 104 475 L 104 485 L 100 485 Z M 100 475 "/>
<path fill-rule="nonzero" fill="rgb(94.901961%, 14.509804%, 14.509804%)" fill-opacity="1" d="M 110 475 L 114 475 L 114 485 L 110 485 Z M 110 475 "/>
<path fill-rule="nonzero" fill="rgb(94.901961%, 14.509804%, 14.509804%)" fill-opacity="1" d="M 208 475 L 212 475 L 212 485 L 208 485 Z M 208 475 "/>
<path fill-rule="nonzero" fill="rgb(94.901961%, 14.509804%, 14.509804%)" fill-opacity="1" d="M 250 475 L 254 475 L 254 485 L 250 485 Z M 250 475 "/>
<path fill-rule="nonzero" fill="rgb(94.901961%, 14.509804%, 14.509804%)" fill-opacity="1" d="M 289 475 L 293 475 L 293 485 L 289 485 Z M 289 475 "/>
<path fill-rule="nonzero" fill="rgb(94.901961%, 14.509804%, 14.509804%)" fill-opacity="1" d="M 301 475 L 305 475 L 305 485 L 301 485 Z M 301 475 "/>
<path fill-rule="nonzero" fill="rgb(94.901961%, 14.509804%, 14.509804%)" fill-opacity="1" d="M 306 475 L 310 475 L 310 485 L 306 485 Z M 306 475 "/>
<path fill-rule="nonzero" fill="rgb(94.901961%, 14.509804%, 14.509804%)" fill-opacity="1" d="M 353 475 L 357 475 L 357 485 L 353 485 Z M 353 475 "/>
<path fill-rule="nonzero" fill="rgb(94.901961%, 14.509804%, 14.509804%)" fill-opacity="1" d="M 442 475 L 446 475 L 446 485 L 442 485 Z M 442 475 "/>
<path fill-rule="nonzero" fill="rgb(94.901961%, 14.509804%, 14.509804%)" fill-opacity="1" d="M 542 475 L 546 475 L 546 485 L 542 485 Z M 542 475 "/>
<path fill-rule="nonzero" fill="rgb(94.901961%, 14.509804%, 14.509804%)" fill-opacity="1" d="M 591 475 L 595 475 L 595 485 L 591 485 Z M 591 475 "/>
<path fill-rule="nonzero" fill="rgb(94.901961%, 14.509804%, 14.509804%)" fill-opacity="1" d="M 622 475 L 626 475 L 626 485 L 622 485 Z M 622 475 "/>
<path fill-rule="nonzero" fill="rgb(94.901961%, 14.509804%, 14.509804%)" fill-opacity="1" d="M 636 475 L 640 475 L 640 485 L 636 485 Z M 636 475 "/>
<path fill-rule="nonzero" fill="rgb(94.901961%, 14.509804%, 14.509804%)" fill-opacity="1" d="M 710 475 L 714 475 L 714 485 L 710 485 Z M 710 475 "/>
<path fill-rule="nonzero" fill="rgb(94.901961%, 14.509804%, 14.509804%)" fill-opacity="1" d="M 729 475 L 733 475 L 733 485 L 729 485 Z M 729 475 "/>
<path fill-rule="nonzero" fill="rgb(94.901961%, 14.509804%, 14.509804%)" fill-opacity="1" d="M 773 475 L 777 475 L 777 485 L 773 485 Z M 773 475 "/>
<path fill-rule="nonzero" fill="rgb(94.901961%, 14.509804%, 14.509804%)" fill-opacity="1" d="M 792 475 L 796 475 L 796 485 L 792 485 Z M 792 475 "/>
<path fill-rule="nonzero" fill="rgb(94.117647%, 81.176471%, 10.196078%)" fill-opacity="1" d="M 576 485 L 581 485 L 581 495 L 576 495 Z M 576 485 "/>
<path fill-rule="nonzero" fill="rgb(13.333333%, 30.980392%, 92.156863%)" fill-opacity="1" d="M 89 505 L 99 505 L 99 515 L 89 515 Z M 89 505 "/>
<path fill-rule="nonzero" fill="rgb(13.333333%, 30.980392%, 92.156863%)" fill-opacity="1" d="M 177 505 L 187 505 L 187 515 L 177 515 Z M 177 505 "/>
<path fill-rule="nonzero" fill="rgb(13.333333%, 30.980392%, 92.156863%)" fill-opacity="1" d="M 320 505 L 330 505 L 330 515 L 320 515 Z M 320 505 "/>
<path fill-rule="nonzero" fill="rgb(13.333333%, 30.980392%, 92.156863%)" fill-opacity="1" d="M 420 505 L 430 505 L 430 515 L 420 515 Z M 420 505 "/>
<path fill-rule="nonzero" fill="rgb(13.333333%, 30.980392%, 92.156863%)" fill-opacity="1" d="M 596 505 L 606 505 L 606 515 L 596 515 Z M 596 505 "/>
<path fill-rule="nonzero" fill="rgb(13.333333%, 30.980392%, 92.156863%)" fill-opacity="1" d="M 655 505 L 665 505 L 665 515 L 655 515 Z M 655 505 "/>
</svg>
